# xmcd
#
# Track frame offsets:
#	150
#	20304
#	35007
#	54467
#	72791
#	88725
#	111284
#	130964
#	154090
#	174251
#
# Disc length: 2523 seconds
# Revision: 0
# Processed by: cddbd v1.5.2PL0 Copyright (c) Steve Scherf et al.
# Submitted via: dBpowerAMP V12.0
#
DISCID=7e09d90a
DTITLE=Joanne Shaw Taylor - The Dirty Truth
DYEAR=2014
DGENRE=Blues
TTITLE0=Mud, Honey
TTITLE1=The Dirty Truth
TTITLE2=Wicked Soul
TTITLE3=Fool In Love
TTITLE4=Wrecking Ball
TTITLE5=Tried, Tested and True
TTITLE6=Outlaw Angel
TTITLE7=Shiver and Sign
TTITLE8=Struck Down
TTITLE9=Feels Like Home
EXTD=
EXTT0=
EXTT1=
EXTT2=
EXTT3=
EXTT4=
EXTT5=
EXTT6=
EXTT7=
EXTT8=
EXTT9=
PLAYORDER=
